<?xml version="1.0" standalone="no"?>
<!DOCTYPE svg PUBLIC "-//W3C//DTD SVG 20010904//EN"
 "http://www.w3.org/TR/2001/REC-SVG-20010904/DTD/svg10.dtd">
<svg version="1.0" xmlns="http://www.w3.org/2000/svg"
 width="1136.000000pt" height="351.000000pt" viewBox="0 0 1136.000000 351.000000"
 preserveAspectRatio="xMidYMid meet">

<g transform="translate(0.000000,351.000000) scale(0.100000,-0.100000)"
fill="#000000" stroke="none">
<path d="M1564 3489 c-669 -60 -1251 -537 -1462 -1199 -16 -52 -33 -115 -36
-140 -5 -33 0 -24 18 36 58 190 125 331 237 500 90 135 308 357 449 457 181
127 420 228 655 274 71 14 137 18 310 17 250 0 334 -13 550 -85 249 -83 448
-205 642 -394 91 -89 113 -106 117 -91 11 43 -174 218 -359 342 -247 164 -513
257 -815 284 -128 11 -174 11 -306 -1z"/>
<path d="M1705 2892 c-40 -25 -147 -140 -223 -240 -224 -294 -438 -720 -521
-1036 -46 -174 -82 -523 -84 -806 l-2 -205 580 -3 c562 -2 581 -1 612 18 18
11 35 31 39 46 4 15 -1 81 -11 146 -9 66 -15 120 -14 121 2 1 29 10 59 20 255
85 445 247 602 514 40 68 54 83 74 83 l24 0 0 -530 0 -529 -22 -22 c-13 -11
-73 -54 -133 -94 -244 -164 -522 -259 -827 -285 -353 -30 -750 69 -1043 260
-348 228 -607 579 -727 990 -17 58 -26 78 -22 50 17 -125 98 -345 181 -494
245 -436 669 -737 1191 -843 136 -28 491 -25 629 5 257 56 535 184 724 333 20
16 40 29 43 29 3 0 6 -40 6 -90 l0 -90 165 0 165 0 0 1145 0 1145 -165 0 -165
0 0 -235 c0 -129 -4 -235 -9 -235 -20 0 -1116 498 -1114 506 1 5 14 41 29 79
34 92 45 223 20 248 -22 21 -24 21 -61 -1z m23 -109 c-3 -32 -22 -101 -41
-153 -20 -52 -33 -98 -29 -101 4 -3 262 -120 575 -260 312 -139 567 -258 567
-264 1 -24 21 -37 76 -48 l59 -12 -1 -115 c0 -148 -14 -197 -59 -216 -19 -8
-50 -14 -69 -14 -40 0 -58 -15 -88 -74 -76 -150 -233 -329 -366 -416 -71 -47
-261 -130 -296 -130 -26 0 -29 -45 -12 -148 21 -129 21 -159 -3 -172 -13 -6
-211 -10 -575 -10 l-556 0 0 38 c0 152 42 622 70 780 74 415 370 990 678 1315
30 31 59 57 65 57 6 0 8 -23 5 -57z"/>
<path d="M2160 1590 c-170 -7 -230 -15 -230 -32 0 -28 82 -521 90 -542 l9 -25
63 26 c218 88 394 215 509 368 37 50 109 184 109 204 0 12 -259 12 -550 1z
m459 -82 c-53 -104 -188 -246 -310 -324 -80 -52 -229 -126 -244 -121 -10 3
-87 458 -79 466 8 9 201 18 422 19 l232 2 -21 -42z"/>
<path d="M9470 1380 l0 -1140 170 0 170 0 0 1140 0 1140 -170 0 -170 0 0
-1140z"/>
<path d="M3570 1380 l0 -1130 160 0 160 0 2 998 3 997 245 0 245 0 3 -998 2
-997 165 0 165 0 0 1130 0 1130 -575 0 -575 0 0 -1130z"/>
<path d="M5120 1380 l0 -1130 165 0 165 0 0 1000 0 1000 245 0 245 0 0 -1000
0 -1000 165 0 165 0 0 1130 0 1130 -575 0 -575 0 0 -1130z"/>
<path d="M6761 1397 c-146 -611 -267 -1120 -269 -1129 -4 -17 8 -18 156 -18
144 0 161 2 166 18 3 9 23 105 46 212 23 107 45 198 49 203 4 4 115 6 247 5
l239 -3 45 -215 46 -215 166 -3 166 -2 -17 72 c-10 40 -129 549 -266 1131
l-249 1057 -131 0 -130 0 -264 -1113z m403 583 c4 -36 45 -282 92 -547 46
-265 84 -489 84 -497 0 -14 -25 -16 -189 -16 -105 0 -192 3 -194 8 -3 4 35
227 84 497 49 269 92 525 95 568 8 89 18 84 28 -13z"/>
<path d="M8060 2501 c0 -5 90 -251 200 -547 110 -296 200 -543 200 -549 0 -7
-96 -269 -214 -583 l-213 -572 573 0 574 0 0 130 0 130 -353 2 -354 3 164 435
c90 239 164 442 165 450 1 8 -67 197 -152 420 -84 223 -155 411 -157 418 -4 9
65 12 326 12 l331 0 0 130 0 130 -545 0 c-305 0 -545 -4 -545 -9z"/>
<path d="M10291 1402 c-145 -609 -266 -1117 -269 -1129 l-4 -23 161 0 c158 0
161 0 166 23 3 12 23 107 45 212 22 104 44 193 48 197 5 5 116 7 247 6 l239
-3 45 -217 46 -218 166 0 165 0 -265 1130 -266 1130 -130 0 -130 0 -264 -1108z
m404 562 c8 -55 50 -306 94 -559 45 -254 81 -466 81 -473 0 -9 -49 -12 -195
-12 -107 0 -195 2 -195 5 0 4 40 227 89 498 50 271 93 527 97 570 4 43 9 76
11 73 2 -2 10 -48 18 -102z"/>
<path d="M52 2080 c0 -14 2 -19 5 -12 2 6 2 18 0 25 -3 6 -5 1 -5 -13z"/>
<path d="M41 2024 c0 -11 3 -14 6 -6 3 7 2 16 -1 19 -3 4 -6 -2 -5 -13z"/>
<path d="M31 1944 c0 -11 3 -14 6 -6 3 7 2 16 -1 19 -3 4 -6 -2 -5 -13z"/>
<path d="M41 1514 c0 -11 3 -14 6 -6 3 7 2 16 -1 19 -3 4 -6 -2 -5 -13z"/>
<path d="M51 1454 c0 -11 3 -14 6 -6 3 7 2 16 -1 19 -3 4 -6 -2 -5 -13z"/>
</g>
</svg>
